<svg width="78" height="78" fill="none" xmlns="http://www.w3.org/2000/svg"><path d="M73.42 12.22H64.5V9.68a3.84 3.84 0 0 0-3.83-3.83h-8.92V2.03A1.28 1.28 0 0 0 50.48.74H2.02A1.27 1.27 0 0 0 .74 2.02v71.4a1.28 1.28 0 0 0 1.27 1.28H40.5a3.84 3.84 0 0 0 3.6 2.55h7.65a3.84 3.84 0 0 0 3.83-3.83V51.75h1.27a1.28 1.28 0 0 0 1.27-1.27v-5.1a1.27 1.27 0 0 0-1.27-1.28h-5.1V39h21.67a3.84 3.84 0 0 0 3.83-3.83V16.05a3.84 3.84 0 0 0-3.83-3.83Zm-8.92 10.2v-2.55h5.1v11.48H51.75v-5.1h8.92a3.84 3.84 0 0 0 3.83-3.82ZM60.67 8.4a1.28 1.28 0 0 1 1.28 1.28v12.75a1.27 1.27 0 0 1-1.28 1.27h-45.9a1.27 1.27 0 0 1-1.27-1.27V9.68a1.28 1.28 0 0 1 1.28-1.28h45.9ZM32.63 27.53a3.84 3.84 0 0 0-3.82 3.82v8.92a1.27 1.27 0 1 1-2.55 0v-3.82a3.83 3.83 0 1 0-7.65 0v14.02a1.27 1.27 0 1 1-2.55 0V26.26H39v10.2a1.27 1.27 0 1 1-2.55 0v-5.1a3.84 3.84 0 0 0-3.83-3.83Zm7.66 44.62H3.3V3.3h45.9v2.55H14.77a3.84 3.84 0 0 0-3.82 3.83v2.54H9.68a2.56 2.56 0 0 0-2.55 2.55v2.55a2.56 2.56 0 0 0 2.55 2.55h1.27v2.55a3.84 3.84 0 0 0 2.55 3.6v24.46a3.83 3.83 0 1 0 7.65 0V36.45a1.27 1.27 0 1 1 2.55 0v3.82a3.83 3.83 0 1 0 7.65 0v-8.92a1.27 1.27 0 1 1 2.55 0v5.1a3.83 3.83 0 1 0 7.65 0v-10.2h7.65v5.1h-1.28a3.84 3.84 0 0 0-3.82 3.82v8.93H39a1.27 1.27 0 0 0-1.27 1.27v5.1A1.27 1.27 0 0 0 39 51.76h1.27v20.4ZM10.95 14.77v2.55H9.68v-2.54h1.27Zm42.08 58.66a1.28 1.28 0 0 1-1.28 1.27H44.1a1.27 1.27 0 0 1-1.27-1.28V51.75h10.2v21.67Zm2.55-26.78v2.55h-15.3v-2.55h15.3ZM74.7 35.17a1.27 1.27 0 0 1-1.28 1.28H51.75A2.56 2.56 0 0 0 49.2 39v5.1h-2.55v-8.93a1.27 1.27 0 0 1 1.27-1.27H69.6a2.56 2.56 0 0 0 2.55-2.55V19.87a2.56 2.56 0 0 0-2.55-2.55h-5.1v-2.54h8.92a1.28 1.28 0 0 1 1.28 1.27v19.12Z" fill="#fff"/><path d="M17.32 56.85a3.82 3.82 0 1 0 0 7.65 3.82 3.82 0 0 0 0-7.65Zm0 5.1a1.28 1.28 0 1 1 0-2.55 1.28 1.28 0 0 1 0 2.55ZM27.52 46.65a3.82 3.82 0 1 0 0 7.65 3.82 3.82 0 0 0 0-7.65Zm0 5.1a1.27 1.27 0 1 1 0-2.55 1.27 1.27 0 0 1 0 2.55ZM16.05 12.22a1.27 1.27 0 0 0 1.27 1.28h34.43a1.28 1.28 0 0 0 0-2.55H17.33a1.27 1.27 0 0 0-1.28 1.28ZM56.85 13.5h1.27a1.28 1.28 0 0 0 0-2.55h-1.27a1.27 1.27 0 1 0 0 2.55Z" fill="#fff"/></svg>