<svg width="24" height="23" fill="none" xmlns="http://www.w3.org/2000/svg"><path fill="#fff" d="M2.4 2.25h18v19.13h-18z"/><path d="M21.14 0H2.86C1.28 0 0 1.2 0 2.68v17.14c0 1.48 1.28 2.68 2.86 2.68h18.28c1.58 0 2.86-1.2 2.86-2.68V2.68C24 1.2 22.72 0 21.14 0ZM6.62 18l2.95-2.78A9.35 9.35 0 0 1 6.78 14c-.51-.33-.64-1-.28-1.49.22-.3.57-.46.94-.46.22 0 .45.07.65.2A7.13 7.13 0 0 0 12 13.39c1.41 0 2.77-.4 3.92-1.15a1.16 1.16 0 0 1 1.59.27c.36.48.23 1.15-.29 1.49-.85.56-1.8.97-2.8 1.22L17.39 18c.45.42.45 1.1 0 1.52a1.18 1.18 0 0 1-1.61 0L12 15.98l-3.77 3.53a1.18 1.18 0 0 1-1.6 0 1.01 1.01 0 0 1 0-1.52ZM12 11.24c-2.53 0-4.57-1.92-4.57-4.29 0-2.36 2.04-4.28 4.57-4.28 2.53 0 4.57 1.92 4.57 4.28 0 2.37-2.04 4.29-4.57 4.29Z" fill="#47556C"/><path d="M12 5.25a2 2 0 1 0 0 4 2 2 0 0 0 0-4Z" fill="#47556C"/></svg>