<svg width="22" height="18" fill="none" xmlns="http://www.w3.org/2000/svg"><path d="M21.8 2.8c-.8.36-1.8.7-2.7.8.92-.54 2.37-1.68 2.7-2.7-.86.5-2.4 1.04-3.41 1.23A4.31 4.31 0 0 0 15.16.9C12.7.9 11 2.97 11 5.4v1.8c-3.6 0-7.11-2.74-9.3-5.4-.38.65-.6 1.4-.6 2.21 0 1.64 1.51 3.3 2.7 4.09a8.35 8.35 0 0 1-2.7-.9v.05c0 2.13 1.5 3.58 3.52 3.98-.37.1-.82.47-2.55.47.56 1.74 3.4 2.66 5.33 2.7-1.52 1.18-4.22 1.8-6.3 1.8-.36 0-.55.02-.9-.02C2.16 17.42 4.9 18 7.4 18 15.55 18 20 11.77 20 5.97c0-.2 0-.83-.02-1.02.87-.61 1.23-1.26 1.82-2.14Z" fill="#fff"/></svg>