<svg width="14" height="14" fill="none" xmlns="http://www.w3.org/2000/svg"><path fill-rule="evenodd" clip-rule="evenodd" d="M2.84 1.4c-.12 0-.24.02-.36.04a3.04 3.04 0 0 0-.6-.88C1.5.16.88 0 0 0v1.4c.53 0 .83.08.9.14.27.27.5.8.5 1.26v.1l.69 4.8A2.18 2.18 0 0 0 0 9.77v.73a2.2 2.2 0 0 0 2.05 2.1h.16a2.1 2.1 0 0 0 3.95 0h1.63a2.1 2.1 0 0 0 4.07-.7 2.1 2.1 0 0 0-4.07-.7H6.16a2.1 2.1 0 0 0-3.95 0H2.1c-.35-.02-.67-.34-.7-.74V9.8a.77.77 0 0 1 .74-.7h8.41l.1-.03c.54-.17.96-.57 1.16-1.09l.07-.14.24-.48A969.78 969.78 0 0 0 13.9 3.8c.42-.95-.43-1.67-1.3-1.69l-9.75-.7Zm7.46 6.3H3.57a.12.12 0 0 1-.09-.1L2.8 2.8l9.68.7-.88 1.77-.01.02-.72 1.44-.24.47-.1.18-.03.08c-.03.1-.1.19-.2.24Zm-.54 4.9a.7.7 0 1 0 0-1.4.7.7 0 0 0 0 1.4Zm-4.88-.7a.7.7 0 1 1-1.4 0 .7.7 0 0 1 1.4 0Z" fill="#fff"/></svg>