<svg width="18" height="19" fill="none" xmlns="http://www.w3.org/2000/svg"><path fill-rule="evenodd" clip-rule="evenodd" d="M3.65 2.19c-.16 0-.31.02-.46.05-.2-.44-.46-.84-.76-1.14C1.92.59 1.1.39 0 .39v1.8c.68 0 1.07.1 1.16.18.34.34.63 1.03.63 1.62l.01.12.88 6.18A2.8 2.8 0 0 0 0 12.94v.95a2.82 2.82 0 0 0 2.64 2.7h.2a2.7 2.7 0 0 0 5.08 0h2.1a2.7 2.7 0 0 0 5.23-.9 2.7 2.7 0 0 0-5.23-.9h-2.1a2.7 2.7 0 0 0-5.08 0H2.7c-.46-.03-.87-.44-.9-.96V13a.99.99 0 0 1 .94-.9h10.83l.13-.05a2.36 2.36 0 0 0 1.48-1.4l.1-.18.3-.61a1348.35 1348.35 0 0 0 2.29-4.6c.54-1.21-.56-2.14-1.68-2.16l-12.53-.9Zm9.6 8.1H4.58a.15.15 0 0 1-.11-.13L3.6 3.99l12.45.9-1.14 2.27v.02l-.94 1.86-.3.6-.12.24-.05.1a.56.56 0 0 1-.26.3Zm-.7 6.3a.9.9 0 1 0 0-1.8.9.9 0 0 0 0 1.8Zm-6.27-.9a.9.9 0 1 1-1.8 0 .9.9 0 0 1 1.8 0Z" fill="#fff"/></svg>