<svg width="111" height="22" fill="none" xmlns="http://www.w3.org/2000/svg"><path fill-rule="evenodd" clip-rule="evenodd" d="M106.23 3.27V20.9h-2.16V3.27h-3.84V1.32h9.83v1.95h-3.83Zm-8.31 10.37c-.38.55-.85.94-1.42 1.17-.56.24-1.24.35-2.02.35a10.5 10.5 0 0 1-2.4-.28v6.02h-2.16V1.6a9.9 9.9 0 0 1 1.84-.44c.61-.08 1.28-.12 2-.12.96 0 1.77.11 2.44.35.68.23 1.22.62 1.63 1.16.42.54.72 1.26.92 2.15.19.9.28 2 .28 3.33 0 1.36-.09 2.5-.27 3.41a5.98 5.98 0 0 1-.84 2.2ZM96.7 5.5c-.12-.67-.31-1.2-.57-1.6-.25-.38-.58-.66-.97-.82-.39-.16-.86-.24-1.4-.24h-1.68V13.2h1.68c.54 0 1.01-.07 1.4-.23.4-.16.72-.44.97-.83.26-.39.45-.92.57-1.6.12-.66.18-1.5.18-2.51 0-1-.06-1.85-.18-2.52ZM84.53 15.86h-4.8l-1.08 5.04H76.5l4.08-19.58h3.12l4.07 19.58h-2.15l-1.08-5.04ZM82.18 4.11h-.1l-1.99 9.8h4.08l-2-9.8ZM71.82 6.35h-.12l-3.48 12.03h-2.16L62.6 6.35h-.12l-.72 14.55h-2.16l.96-19.58h2.64l3.9 13.42h.1L71.1 1.32h2.64l.96 19.58h-2.16l-.72-14.55ZM55.7 19.08a4 4 0 0 1-1.62 1.62c-.63.32-1.36.48-2.17.48-.82 0-1.54-.16-2.17-.48a4 4 0 0 1-1.62-1.62 9.48 9.48 0 0 1-1.02-3.1c-.23-1.29-.35-2.92-.35-4.87 0-1.96.12-3.59.35-4.88.23-1.3.57-2.33 1.02-3.1a4 4 0 0 1 1.62-1.62 4.77 4.77 0 0 1 2.17-.47c.81 0 1.54.15 2.17.47a4 4 0 0 1 1.62 1.62c.44.77.78 1.8 1.02 3.1.23 1.3.34 2.92.34 4.88 0 1.95-.11 3.58-.34 4.88a9.48 9.48 0 0 1-1.02 3.09ZM54.66 6.97A11.01 11.01 0 0 0 54 4.39a2.88 2.88 0 0 0-.96-1.31 2.03 2.03 0 0 0-1.12-.37c-.39 0-.76.13-1.13.37-.37.24-.69.68-.96 1.31-.27.64-.49 1.5-.66 2.58a27.88 27.88 0 0 0-.25 4.14c0 1.68.08 3.06.25 4.14.17 1.08.39 1.94.66 2.57.27.63.6 1.07.96 1.32.37.24.74.36 1.13.36.38 0 .76-.12 1.12-.36.37-.25.7-.69.96-1.32.28-.63.5-1.5.66-2.57.17-1.08.25-2.46.25-4.14 0-1.68-.08-3.06-.25-4.14Zm-12.93 4.98h-5.04v8.95h-2.16V1.32h2.16v8.67h5.04V1.32h2.15V20.9h-2.15v-8.95Zm-11.4 8.95-2.99-8.4-3 8.4H22.2l3.6-10.07-3.24-9.51h2.15l2.64 7.83 2.64-7.83h2.16l-3.24 9.5 3.6 10.08h-2.16ZM12.72 1.32h8.16v1.95h-6v6.44h5.28v1.96h-5.28v7.27h6v1.96H12.7V1.32ZM6.96 20.9H4.8V3.27H.97V1.32h9.83v1.95H6.96V20.9Z" fill="#fff"/></svg>